<svg id="visual" viewBox="0 0 960 540" width="960" height="540" xmlns="http://www.w3.org/2000/svg" xmlns:xlink="http://www.w3.org/1999/xlink" version="1.1"><rect x="0" y="0" width="960" height="540" fill="#ebd4b4"></rect><path d="M0 375L17.8 374C35.7 373 71.3 371 106.8 385.5C142.3 400 177.7 431 213.2 428.5C248.7 426 284.3 390 320 384C355.7 378 391.3 402 426.8 412.3C462.3 422.7 497.7 419.3 533.2 409.7C568.7 400 604.3 384 640 383C675.7 382 711.3 396 746.8 406.5C782.3 417 817.7 424 853.2 420.2C888.7 416.3 924.3 401.7 942.2 394.3L960 387L960 541L942.2 541C924.3 541 888.7 541 853.2 541C817.7 541 782.3 541 746.8 541C711.3 541 675.7 541 640 541C604.3 541 568.7 541 533.2 541C497.7 541 462.3 541 426.8 541C391.3 541 355.7 541 320 541C284.3 541 248.7 541 213.2 541C177.7 541 142.3 541 106.8 541C71.3 541 35.7 541 17.8 541L0 541Z" fill="#dd8214" stroke-linecap="round" stroke-linejoin="miter"></path></svg>